<svg width="22" height="22" viewBox="0 0 22 22" fill="none" xmlns="http://www.w3.org/2000/svg">
<g id="Group 1696">
<path id="Vector" d="M7.74874 0.000934258H8.58864C8.93898 0.153218 9.26317 0.352215 9.59577 0.538133C10.1881 0.869794 10.8168 0.869794 11.4092 0.538133C11.7418 0.352215 12.0659 0.152284 12.4163 0.000934258H13.2562C13.7551 0.251315 14.2549 0.499828 14.4997 1.05197C14.9154 1.9881 15.6301 2.41599 16.656 2.3263C17.2324 2.27585 17.7304 2.46177 18.1386 2.86817C18.5749 3.3026 18.7309 3.83606 18.6796 4.44427C18.6123 5.24212 18.8804 5.926 19.5914 6.2969C20.2444 6.63697 20.7256 7.07887 21.0049 7.75061V8.68393C20.8171 8.99971 20.6125 9.30708 20.4462 9.63314C20.1454 10.2236 20.1435 10.8337 20.4668 11.4092C20.6536 11.7418 20.8526 12.0669 21.0049 12.4182V13.3515C20.7013 13.7897 20.4677 14.2867 19.9324 14.5174C19.0533 14.8958 18.6356 15.5741 18.6655 16.5298C18.2638 17.5949 17.48 18.0125 16.3663 17.9322C15.5227 17.8714 14.9509 18.3339 14.5754 19.0383C13.9176 20.2725 12.847 20.5845 11.667 19.8511C10.8916 19.369 10.1208 19.3672 9.34445 19.8474C8.14299 20.5911 7.09009 20.294 6.43797 19.0458C6.0624 18.3273 5.47288 17.8864 4.6442 17.9359C3.52869 18.0013 2.75046 17.5865 2.34125 16.5298C2.36741 15.7824 2.14412 15.1107 1.47333 14.7519C0.836161 14.41 0.337267 13.9802 0 13.3515C0 13.0095 0 12.6667 0 12.3247C0.187786 12.008 0.392388 11.7007 0.559621 11.3737C0.852978 10.8 0.852978 10.2086 0.559621 9.63501C0.392388 9.30708 0.187786 8.99971 0 8.683C0 8.34106 0 7.99819 0 7.65625C0.299897 7.25358 0.488617 6.75002 0.994985 6.5342C2.01613 6.09977 2.40571 5.32714 2.33097 4.23312C2.27492 3.40631 2.71402 2.82333 3.45302 2.46551C3.81738 2.28893 4.20696 2.31789 4.59468 2.33097C5.34209 2.3562 5.9643 2.06378 6.29877 1.40886C6.6323 0.753946 7.07887 0.278409 7.7478 0L7.74874 0.000934258ZM10.4936 18.7571C14.9892 18.7608 18.7721 15.0509 18.7468 10.5908C18.7197 5.85687 15.0808 2.27866 10.5113 2.27398C5.93254 2.26931 2.29267 5.85593 2.25623 10.573C2.2226 15.0285 5.99887 18.7534 10.4927 18.7571H10.4936Z" fill="#FECA5B"/>
<path id="Vector_2" d="M7.74879 21.0068C7.07986 20.7256 6.63515 20.2482 6.29695 19.5924C5.92978 18.8814 5.24684 18.6404 4.44712 18.6777C3.38113 18.7282 2.66549 18.2321 2.38147 17.3118C2.30112 17.0512 2.30953 16.7924 2.33943 16.5289C2.74863 17.5856 3.52781 18.0004 4.64238 17.935C5.47106 17.8864 6.06058 18.3274 6.43615 19.0449C7.08826 20.2931 8.14211 20.5902 9.34263 19.8465C10.119 19.3663 10.8898 19.3681 11.6652 19.8502C12.8452 20.5836 13.9158 20.2716 14.5735 19.0374C14.9491 18.333 15.5209 17.8705 16.3645 17.9313C17.4791 18.0116 18.262 17.594 18.6637 16.5289C18.7618 17.8556 17.9387 18.7375 16.6056 18.6777C15.6218 18.6338 14.9276 19.0094 14.525 19.9119C14.2578 20.5098 13.7402 20.7948 13.1619 21.0059H12.322C12.0062 20.8181 11.6988 20.6154 11.3728 20.4472C10.7814 20.1417 10.1713 20.1417 9.59395 20.4687C9.26228 20.6565 8.93436 20.8489 8.58681 21.0059H7.74692L7.74879 21.0068Z" fill="#F6B738"/>
<path id="Vector_3" d="M10.4935 18.757C5.9997 18.7533 2.22343 15.0284 2.25706 10.5729C2.29349 5.85588 5.93337 2.26926 10.5122 2.27393C15.0816 2.2786 18.7206 5.85681 18.7477 10.5907C18.7729 15.0508 14.9891 18.7608 10.4944 18.757H10.4935ZM10.4683 17.0941C14.0614 17.1922 16.9754 14.1568 17.1034 10.8102C17.2538 6.87982 14.068 3.95653 10.6093 3.89861C6.98441 3.83788 3.75374 6.90785 3.89949 10.786C4.02654 14.1726 6.96572 17.1613 10.4683 17.0941Z" fill="#FD4754"/>
<path id="Vector_4" d="M10.4683 17.0942C6.96576 17.1614 4.02658 14.1728 3.89952 10.7861C3.75378 6.90796 6.98444 3.83799 10.6094 3.89871C14.0671 3.95664 17.2538 6.88086 17.1034 10.8104C16.9754 14.1569 14.0615 17.1923 10.4683 17.0942ZM12.9506 13.5347C13.0898 13.0451 12.9011 12.5826 12.818 12.1155C12.7404 11.6811 12.7834 11.3261 13.1505 11.0318C13.3916 10.8384 13.5971 10.6001 13.8195 10.3834C14.0493 10.1592 14.2474 9.92842 14.1212 9.56966C13.9923 9.2025 13.6924 9.10814 13.3552 9.06329C13.0478 9.02218 12.7404 8.9736 12.4321 8.94184C12.0416 8.9026 11.7716 8.72789 11.6165 8.35232C11.4745 8.00945 11.2867 7.68526 11.1241 7.34986C10.9971 7.08921 10.7897 6.92945 10.5038 6.92851C10.2179 6.92851 10.0105 7.08734 9.88438 7.34893C9.72182 7.68433 9.53404 8.00758 9.39203 8.35139C9.23601 8.72696 8.96601 8.90073 8.57642 8.94277C8.20552 8.98295 7.83369 9.02312 7.46932 9.09786C6.82842 9.23052 6.64718 9.80696 7.09095 10.2816C7.3133 10.5198 7.53846 10.7618 7.79164 10.9645C8.19338 11.2859 8.2868 11.6605 8.17843 12.1604C8.0822 12.606 7.9131 13.061 8.05697 13.5337C8.35967 13.9812 8.63902 14.1111 9.05476 13.8112C10.0432 13.0965 10.9653 13.075 11.9556 13.8103C12.3639 14.113 12.6507 13.9794 12.9534 13.5347H12.9506Z" fill="#C51926"/>
<path id="Vector_5" d="M8.05512 13.5347C7.91124 13.0619 8.07941 12.6069 8.17657 12.1613C8.28494 11.6615 8.19245 11.2868 7.78979 10.9654C7.5366 10.7627 7.31145 10.5207 7.08909 10.2825C6.64625 9.8079 6.82657 9.23146 7.46747 9.09879C7.83183 9.02312 8.20366 8.98295 8.57456 8.94371C8.96415 8.90167 9.23415 8.72789 9.39017 8.35232C9.53218 8.00945 9.71996 7.68526 9.88253 7.34986C10.0096 7.08827 10.217 6.92851 10.5019 6.92945C10.7869 6.92945 10.9952 7.09014 11.1223 7.3508C11.2858 7.68526 11.4726 8.00945 11.6146 8.35326C11.7707 8.72883 12.0407 8.90353 12.4302 8.94277C12.7386 8.9736 13.0459 9.02312 13.3533 9.06423C13.6906 9.10907 13.9914 9.20343 14.1194 9.5706C14.2455 9.93028 14.0474 10.161 13.8176 10.3843C13.5953 10.6011 13.3897 10.8393 13.1487 11.0327C12.7825 11.327 12.7386 11.682 12.8161 12.1164C12.9002 12.5826 13.0889 13.046 12.9488 13.5356C12.2817 13.3216 11.6941 12.9414 11.0802 12.6209C10.6645 12.4033 10.3375 12.4033 9.92083 12.6209C9.30796 12.9414 8.71937 13.3216 8.05231 13.5356L8.05512 13.5347Z" fill="#FDDF79"/>
<path id="Vector_6" d="M8.05518 13.5346C8.7213 13.3206 9.30988 12.9404 9.92369 12.6199C10.3394 12.4022 10.6664 12.4022 11.0831 12.6199C11.696 12.9404 12.2846 13.3206 12.9516 13.5346C12.6489 13.9802 12.3621 14.1138 11.9538 13.8102C10.9635 13.0758 10.0414 13.0973 9.05296 13.8111C8.63815 14.111 8.35881 13.9821 8.05518 13.5336V13.5346Z" fill="#FECA5B"/>
</g>
</svg>
