<svg width="21" height="22" viewBox="0 0 21 22" fill="none" xmlns="http://www.w3.org/2000/svg">
<g id="Group 1699">
<path id="Vector" d="M7.74692 0.000934039H8.58662C8.93689 0.153182 9.261 0.352133 9.59352 0.538007C10.1857 0.86959 10.8143 0.86959 11.4065 0.538007C11.739 0.352133 12.0631 0.152248 12.4134 0.000934039H13.2531C13.7519 0.251257 14.2516 0.499711 14.4963 1.05173C14.9119 1.98764 15.6265 2.41543 16.652 2.32576C17.2283 2.27532 17.7262 2.46119 18.1344 2.8675C18.5706 3.30183 18.7265 3.83516 18.6752 4.44322C18.6079 5.24089 18.876 5.92461 19.5868 6.29542C20.2397 6.63541 20.7207 7.07721 21 7.74879V8.68189C20.8123 8.9976 20.6077 9.3049 20.4414 9.63088C20.1407 10.2212 20.1388 10.8311 20.462 11.4065C20.6488 11.739 20.8478 12.064 21 12.4152V13.3484C20.6964 13.7864 20.4629 14.2833 19.9277 14.514C19.0488 14.8923 18.6313 15.5704 18.6612 16.526C18.2595 17.5908 17.4759 18.0083 16.3625 17.9279C15.5191 17.8672 14.9474 18.3296 14.5719 19.0338C13.9144 20.2677 12.844 20.5797 11.6643 19.8465C10.889 19.3645 10.1184 19.3626 9.34226 19.8427C8.14108 20.5862 7.08842 20.2892 6.43646 19.0413C6.06098 18.323 5.4716 17.8822 4.64311 17.9317C3.52787 17.9971 2.74981 17.5823 2.3407 16.526C2.36685 15.7787 2.14362 15.1071 1.47298 14.7485C0.835965 14.4066 0.337188 13.977 0 13.3484C0 13.0065 0 12.6637 0 12.3218C0.187742 12.0052 0.392296 11.6979 0.559489 11.371C0.852778 10.7975 0.852778 10.2062 0.559489 9.63274C0.392296 9.3049 0.187742 8.9976 0 8.68096C0 8.3391 0 7.99631 0 7.65445C0.299827 7.25188 0.488502 6.74843 0.994752 6.53267C2.01566 6.09834 2.40515 5.32589 2.33043 4.23213C2.27439 3.40551 2.71338 2.82267 3.45221 2.46493C3.81648 2.2884 4.20598 2.31735 4.5936 2.33043C5.34084 2.35565 5.96291 2.06329 6.29729 1.40853C6.63074 0.75377 7.07721 0.278344 7.74599 0L7.74692 0.000934039ZM10.4911 18.7527C14.9857 18.7564 18.7676 15.0474 18.7424 10.5883C18.7153 5.85549 15.0773 2.27812 10.5089 2.27345C5.93115 2.26878 2.29213 5.85456 2.2557 10.5705C2.22208 15.025 5.99746 18.749 10.4902 18.7527H10.4911Z" fill="#FECA5B"/>
<path id="Vector_2" d="M7.74702 21.0019C7.07825 20.7207 6.63365 20.2434 6.29553 19.5877C5.92845 18.8769 5.24567 18.636 4.44613 18.6733C3.38039 18.7238 2.66492 18.2278 2.38097 17.3077C2.30064 17.0472 2.30905 16.7884 2.33894 16.525C2.74805 17.5814 3.52703 17.9961 4.64134 17.9308C5.46983 17.8822 6.05921 18.323 6.4347 19.0404C7.08666 20.2883 8.14025 20.5853 9.34049 19.8418C10.1167 19.3617 10.8873 19.3636 11.6625 19.8455C12.8422 20.5788 13.9126 20.2668 14.5702 19.0329C14.9457 18.3287 15.5173 17.8663 16.3607 17.927C17.475 18.0073 18.2578 17.5898 18.6594 16.525C18.7575 17.8514 17.9346 18.7331 16.6017 18.6733C15.6182 18.6294 14.9242 19.0049 14.5216 19.9072C14.2545 20.505 13.737 20.7898 13.1588 21.0009H12.3191C12.0034 20.8132 11.6961 20.6105 11.3702 20.4424C10.7789 20.137 10.169 20.137 9.59175 20.4639C9.26017 20.6516 8.93232 20.844 8.58486 21.0009H7.74515L7.74702 21.0019Z" fill="#F6B738"/>
<path id="Vector_3" d="M10.4911 18.7527C5.99833 18.749 2.22295 15.0249 2.25657 10.5705C2.293 5.85455 5.93201 2.26877 10.5097 2.27344C15.0781 2.27811 18.7162 5.85548 18.7433 10.5883C18.7685 15.0474 14.9857 18.7564 10.492 18.7527H10.4911ZM10.4658 17.0901C14.0582 17.1882 16.9714 14.1535 17.0994 10.8078C17.2498 6.87825 14.0647 3.95565 10.6069 3.89774C6.98281 3.83702 3.7529 6.90628 3.89861 10.7835C4.02564 14.1694 6.96413 17.1574 10.4658 17.0901Z" fill="#4DF79A"/>
<path id="Vector_4" d="M10.466 17.0901C6.96431 17.1574 4.02582 14.1694 3.89879 10.7835C3.75308 6.90628 6.98299 3.83702 10.6071 3.89774C14.0639 3.95565 17.2499 6.87919 17.0996 10.8078C16.9716 14.1535 14.0583 17.1882 10.466 17.0901ZM12.9478 13.5314C13.0869 13.042 12.8983 12.5796 12.8151 12.1126C12.7376 11.6783 12.7806 11.3233 13.1476 11.0291C13.3886 10.8358 13.5941 10.5976 13.8164 10.3809C14.0462 10.1567 14.2442 9.92602 14.1181 9.56735C13.9892 9.20027 13.6894 9.10594 13.3522 9.0611C13.0449 9.02001 12.7376 8.97144 12.4294 8.93968C12.0389 8.90045 11.769 8.72578 11.614 8.3503C11.472 8.00751 11.2842 7.6834 11.1217 7.34808C10.9947 7.08748 10.7873 6.92776 10.5015 6.92682C10.2157 6.92682 10.0083 7.08561 9.88224 7.34714C9.71972 7.68246 9.53198 8.00564 9.39001 8.34937C9.23402 8.72485 8.96408 8.89858 8.57459 8.94061C8.20378 8.98078 7.83203 9.02094 7.46775 9.09566C6.827 9.2283 6.6458 9.8046 7.08947 10.2791C7.31177 10.5173 7.53687 10.7592 7.79 10.9619C8.19163 11.2832 8.28504 11.6577 8.17669 12.1574C8.08048 12.603 7.91142 13.0579 8.05526 13.5305C8.35789 13.9779 8.63717 14.1077 9.05282 13.8079C10.041 13.0934 10.9629 13.0719 11.953 13.807C12.3612 14.1096 12.6479 13.976 12.9506 13.5314H12.9478Z" fill="#1DBF25"/>
<path id="Vector_5" d="M8.05312 13.5314C7.90928 13.0588 8.07741 12.6039 8.17455 12.1584C8.2829 11.6586 8.19043 11.2841 7.78786 10.9628C7.53473 10.7601 7.30963 10.5182 7.08733 10.28C6.64459 9.80551 6.82486 9.22921 7.46561 9.09658C7.82989 9.02092 8.20164 8.98076 8.57245 8.94153C8.96194 8.89949 9.23188 8.72576 9.38786 8.35028C9.52984 8.00749 9.71758 7.68338 9.8801 7.34806C10.0071 7.08653 10.2145 6.9268 10.4994 6.92774C10.7843 6.92774 10.9925 7.08839 11.1196 7.34899C11.283 7.68338 11.4698 8.00749 11.6118 8.35121C11.7678 8.7267 12.0377 8.90136 12.4272 8.94059C12.7355 8.97142 13.0428 9.02092 13.3501 9.06202C13.6872 9.10685 13.988 9.20119 14.116 9.56827C14.2421 9.92787 14.044 10.1586 13.8143 10.3818C13.592 10.5985 13.3865 10.8367 13.1455 11.03C12.7794 11.3243 12.7355 11.6792 12.813 12.1135C12.897 12.5796 13.0857 13.0429 12.9456 13.5323C12.2787 13.3184 11.6912 12.9383 11.0775 12.6179C10.6619 12.4003 10.335 12.4003 9.9184 12.6179C9.30567 12.9383 8.71722 13.3184 8.05032 13.5323L8.05312 13.5314Z" fill="#FDDF79"/>
<path id="Vector_6" d="M8.05322 13.5315C8.71919 13.3176 9.30764 12.9375 9.9213 12.6171C10.3369 12.3994 10.6639 12.3994 11.0804 12.6171C11.6932 12.9375 12.2816 13.3176 12.9485 13.5315C12.6459 13.977 12.3591 14.1106 11.951 13.807C10.9609 13.0729 10.039 13.0944 9.05078 13.808C8.63606 14.1078 8.35679 13.9789 8.05322 13.5306V13.5315Z" fill="#FECA5B"/>
</g>
</svg>
