<svg width="129" height="68" viewBox="0 0 129 68" fill="none" xmlns="http://www.w3.org/2000/svg">
<path d="M5.10319 63.08C4.59119 63.08 4.16452 62.984 3.82319 62.792C3.49252 62.6 3.22585 62.328 3.02319 61.976C2.82052 61.6133 2.66585 61.1867 2.55919 60.696C2.49519 60.376 2.44185 60.04 2.39919 59.688C2.36719 59.3253 2.34585 58.9413 2.33519 58.536C2.32452 58.1307 2.31919 57.7147 2.31919 57.288C2.31919 57.0213 2.32452 56.7547 2.33519 56.488C2.34585 56.2213 2.36185 55.96 2.38319 55.704C2.40452 55.4373 2.43119 55.1813 2.46319 54.936C2.50585 54.68 2.55385 54.4347 2.60719 54.2C2.78852 53.4853 3.09252 52.8933 3.51919 52.424C3.95652 51.9547 4.58052 51.72 5.39119 51.72C5.91385 51.72 6.34052 51.832 6.67119 52.056C7.00185 52.2693 7.26319 52.568 7.45519 52.952C7.65785 53.3253 7.80719 53.7573 7.90319 54.248C7.99919 54.7067 8.05785 55.2027 8.07919 55.736C8.11119 56.2587 8.12719 56.7867 8.12719 57.32C8.12719 57.7893 8.11119 58.248 8.07919 58.696C8.05785 59.1333 8.01519 59.5493 7.95119 59.944C7.89785 60.3387 7.81785 60.7067 7.71119 61.048C7.50852 61.6667 7.20452 62.1627 6.79919 62.536C6.39385 62.8987 5.82852 63.08 5.10319 63.08ZM5.15119 62.104C5.46052 62.104 5.71652 62.024 5.91919 61.864C6.12185 61.704 6.28719 61.48 6.41519 61.192C6.55385 60.8933 6.66052 60.5467 6.73519 60.152C6.80985 59.7467 6.85785 59.2987 6.87919 58.808C6.91119 58.3173 6.92719 57.7947 6.92719 57.24C6.92719 56.7707 6.91652 56.328 6.89519 55.912C6.88452 55.496 6.85785 55.1173 6.81519 54.776C6.72985 54.1147 6.56985 53.5973 6.33519 53.224C6.11119 52.84 5.76452 52.648 5.29519 52.648C4.82585 52.648 4.46319 52.8453 4.20719 53.24C3.96185 53.624 3.78585 54.1307 3.67919 54.76C3.64719 54.952 3.61519 55.16 3.58319 55.384C3.56185 55.5973 3.54585 55.8213 3.53519 56.056C3.52452 56.28 3.51385 56.5147 3.50319 56.76C3.50319 56.9947 3.50319 57.2347 3.50319 57.48C3.50319 58.024 3.51385 58.536 3.53519 59.016C3.55652 59.4853 3.59919 59.912 3.66319 60.296C3.72719 60.6693 3.81785 60.9947 3.93519 61.272C4.06319 61.5387 4.22319 61.7467 4.41519 61.896C4.61785 62.0347 4.86319 62.104 5.15119 62.104ZM15.3961 63.048L14.1161 62.984C14.1267 62.8027 14.1374 62.5787 14.1481 62.312C14.1694 62.0453 14.1854 61.7413 14.1961 61.4C14.2174 61.0587 14.2334 60.6747 14.2441 60.248C14.2547 59.8213 14.2601 59.3573 14.2601 58.856C14.2601 58.7173 14.2601 58.5573 14.2601 58.376C14.2601 58.1947 14.2601 57.9973 14.2601 57.784C14.2601 57.5707 14.2601 57.3467 14.2601 57.112C14.2601 56.7067 14.2227 56.392 14.1481 56.168C14.0734 55.9333 13.9667 55.768 13.8281 55.672C13.7001 55.576 13.5454 55.528 13.3641 55.528C13.1187 55.528 12.8681 55.6293 12.6121 55.832C12.3667 56.0347 12.1587 56.376 11.9881 56.856C11.8281 57.336 11.7481 57.992 11.7481 58.824L11.1401 59.576C11.1401 59.1813 11.1561 58.76 11.1881 58.312C11.2201 57.864 11.2841 57.4213 11.3801 56.984C11.4761 56.5467 11.6147 56.1467 11.7961 55.784C11.9774 55.4213 12.2121 55.1333 12.5001 54.92C12.7987 54.7067 13.1614 54.6 13.5881 54.6C13.9187 54.6 14.2067 54.68 14.4521 54.84C14.6974 55 14.8894 55.2613 15.0281 55.624C15.1774 55.976 15.2521 56.4453 15.2521 57.032C15.2521 57.4373 15.2521 57.7253 15.2521 57.896C15.2521 58.0667 15.2521 58.2 15.2521 58.296C15.2521 58.392 15.2521 58.5413 15.2521 58.744C15.2521 59.3307 15.2574 59.848 15.2681 60.296C15.2787 60.744 15.2894 61.1387 15.3001 61.48C15.3214 61.8107 15.3374 62.104 15.3481 62.36C15.3694 62.616 15.3854 62.8453 15.3961 63.048ZM10.6121 62.984C10.6227 62.76 10.6334 62.536 10.6441 62.312C10.6654 62.0773 10.6814 61.816 10.6921 61.528C10.7134 61.2293 10.7294 60.8827 10.7401 60.488C10.7507 60.0827 10.7561 59.592 10.7561 59.016C10.7561 58.2373 10.7507 57.5227 10.7401 56.872C10.7294 56.2107 10.7187 55.6827 10.7081 55.288C10.6974 54.8933 10.6921 54.696 10.6921 54.696L11.7641 54.648C11.7641 54.8827 11.7587 55.2187 11.7481 55.656C11.7374 56.0933 11.7321 56.5893 11.7321 57.144C11.7321 57.688 11.7374 58.248 11.7481 58.824C11.7481 59.6453 11.7534 60.3067 11.7641 60.808C11.7747 61.3093 11.7854 61.72 11.7961 62.04C11.8067 62.36 11.8121 62.6747 11.8121 62.984H10.6121ZM20.0437 63.208C19.489 63.208 19.0464 63.048 18.7157 62.728C18.3957 62.408 18.1557 61.9867 17.9957 61.464C17.889 61.1013 17.8144 60.7067 17.7717 60.28C17.729 59.8533 17.7077 59.4107 17.7077 58.952C17.7077 58.44 17.7397 57.9547 17.8037 57.496C17.8677 57.0267 17.9637 56.6107 18.0917 56.248C18.2197 55.9067 18.3797 55.6133 18.5717 55.368C18.7744 55.1227 19.025 54.9307 19.3237 54.792C19.6224 54.6533 19.9637 54.584 20.3477 54.584C20.8704 54.584 21.2704 54.696 21.5477 54.92C21.8357 55.144 22.033 55.448 22.1397 55.832C22.257 56.2053 22.3157 56.6427 22.3157 57.144C22.3157 57.3787 22.305 57.624 22.2837 57.88C22.2624 58.1253 22.2357 58.3867 22.2037 58.664L21.1957 58.488C21.217 58.2213 21.2384 57.9653 21.2597 57.72C21.281 57.4747 21.2917 57.2453 21.2917 57.032C21.2917 56.712 21.2597 56.4347 21.1957 56.2C21.1424 55.9653 21.0357 55.784 20.8757 55.656C20.7264 55.5173 20.5077 55.448 20.2197 55.448C19.889 55.448 19.6224 55.5707 19.4197 55.816C19.2277 56.0507 19.0784 56.36 18.9717 56.744C18.8864 57.0747 18.8277 57.4373 18.7957 57.832C18.7744 58.216 18.7637 58.6 18.7637 58.984C18.7637 59.24 18.7637 59.4907 18.7637 59.736C18.7744 59.9707 18.7904 60.2 18.8117 60.424C18.833 60.648 18.865 60.856 18.9077 61.048C18.993 61.4213 19.1317 61.7253 19.3237 61.96C19.5157 62.184 19.793 62.296 20.1557 62.296C20.625 62.296 20.9344 62.2107 21.0837 62.04C21.2437 61.8587 21.3237 61.6293 21.3237 61.352C21.3237 61.256 21.3184 61.1707 21.3077 61.096C21.3077 61.0107 21.297 60.9253 21.2757 60.84L22.2197 60.632C22.241 60.728 22.2517 60.824 22.2517 60.92C22.2624 61.016 22.2677 61.112 22.2677 61.208C22.2677 61.592 22.193 61.9387 22.0437 62.248C21.8944 62.5467 21.6544 62.7813 21.3237 62.952C21.0037 63.1227 20.577 63.208 20.0437 63.208ZM24.7056 63C24.7056 63 24.7056 62.824 24.7056 62.472C24.7162 62.12 24.7216 61.6667 24.7216 61.112C24.7322 60.5467 24.7376 59.944 24.7376 59.304C24.7482 58.664 24.7536 58.0507 24.7536 57.464C24.7536 56.9947 24.7482 56.504 24.7376 55.992C24.7376 55.4693 24.7376 54.9573 24.7376 54.456C24.7376 53.9547 24.7322 53.5013 24.7216 53.096C24.7216 52.6907 24.7162 52.3653 24.7056 52.12C24.7056 51.8747 24.7056 51.752 24.7056 51.752H25.8576C25.8576 51.752 25.8522 51.9227 25.8416 52.264C25.8416 52.5947 25.8362 53.0373 25.8256 53.592C25.8149 54.136 25.7989 54.728 25.7776 55.368C25.7669 55.9973 25.7562 56.616 25.7456 57.224C25.7456 57.832 25.7456 58.3653 25.7456 58.824C25.7456 59.4 25.7509 59.944 25.7616 60.456C25.7722 60.9573 25.7829 61.4 25.7936 61.784C25.8042 62.1573 25.8149 62.456 25.8256 62.68C25.8362 62.8933 25.8416 63 25.8416 63H24.7056ZM29.3936 63.048L28.1136 62.984C28.1242 62.8027 28.1349 62.5787 28.1456 62.312C28.1669 62.0453 28.1829 61.7413 28.1936 61.4C28.2149 61.0587 28.2309 60.6747 28.2416 60.248C28.2522 59.8213 28.2576 59.3573 28.2576 58.856C28.2576 58.7173 28.2576 58.5573 28.2576 58.376C28.2576 58.1947 28.2576 57.9973 28.2576 57.784C28.2576 57.5707 28.2576 57.3467 28.2576 57.112C28.2576 56.7067 28.2202 56.392 28.1456 56.168C28.0709 55.9333 27.9642 55.768 27.8256 55.672C27.6976 55.576 27.5429 55.528 27.3616 55.528C27.1162 55.528 26.8656 55.6293 26.6096 55.832C26.3642 56.0347 26.1562 56.376 25.9856 56.856C25.8256 57.336 25.7456 57.992 25.7456 58.824L25.1376 59.576C25.1376 59.1813 25.1536 58.76 25.1856 58.312C25.2176 57.864 25.2816 57.4213 25.3776 56.984C25.4736 56.5467 25.6122 56.1467 25.7936 55.784C25.9749 55.4213 26.2096 55.1333 26.4976 54.92C26.7962 54.7067 27.1589 54.6 27.5856 54.6C27.9162 54.6 28.2042 54.68 28.4496 54.84C28.6949 55 28.8869 55.2613 29.0256 55.624C29.1749 55.976 29.2496 56.4453 29.2496 57.032C29.2496 57.4373 29.2496 57.7253 29.2496 57.896C29.2496 58.0667 29.2496 58.2 29.2496 58.296C29.2496 58.392 29.2496 58.5413 29.2496 58.744C29.2496 59.3307 29.2549 59.848 29.2656 60.296C29.2762 60.744 29.2869 61.1387 29.2976 61.48C29.3189 61.8107 29.3349 62.104 29.3456 62.36C29.3669 62.616 29.3829 62.8453 29.3936 63.048ZM35.4354 63.16C35.3288 63.0213 35.2434 62.8667 35.1794 62.696C35.1261 62.5253 35.0834 62.3333 35.0514 62.12C35.0194 61.896 34.9981 61.6507 34.9874 61.384C34.9768 61.1067 34.9714 60.808 34.9714 60.488C34.9714 60.168 34.9714 59.8213 34.9714 59.448C34.9714 59.224 34.9714 59.0053 34.9714 58.792C34.9714 58.5787 34.9714 58.3653 34.9714 58.152C34.9821 57.9387 34.9874 57.7253 34.9874 57.512C34.9874 57.288 34.9874 57.0693 34.9874 56.856C34.9874 56.4293 34.9288 56.1093 34.8114 55.896C34.6941 55.6827 34.5394 55.5387 34.3474 55.464C34.1661 55.3787 33.9688 55.336 33.7554 55.336C33.3608 55.336 33.0834 55.4747 32.9234 55.752C32.7634 56.0293 32.6834 56.3493 32.6834 56.712C32.6834 56.8187 32.6888 56.9307 32.6994 57.048C32.7208 57.1547 32.7421 57.2667 32.7634 57.384L31.8514 57.688C31.8088 57.528 31.7768 57.368 31.7554 57.208C31.7448 57.048 31.7394 56.8987 31.7394 56.76C31.7394 56.3333 31.8194 55.9547 31.9794 55.624C32.1501 55.2933 32.3954 55.032 32.7154 54.84C33.0354 54.648 33.4248 54.552 33.8834 54.552C34.2994 54.552 34.6408 54.616 34.9074 54.744C35.1741 54.872 35.3874 55.048 35.5474 55.272C35.7074 55.4853 35.8194 55.7413 35.8834 56.04C35.9474 56.328 35.9794 56.6373 35.9794 56.968C35.9794 57.4053 35.9794 57.8 35.9794 58.152C35.9794 58.504 35.9794 58.84 35.9794 59.16C35.9794 59.4693 35.9794 59.8 35.9794 60.152C35.9794 60.4933 35.9794 60.8773 35.9794 61.304C35.9794 61.6453 36.0114 61.928 36.0754 62.152C36.1394 62.376 36.2408 62.5947 36.3794 62.808L35.4354 63.16ZM33.2114 63.08C32.8594 63.08 32.5608 62.9947 32.3154 62.824C32.0701 62.6533 31.8834 62.4187 31.7554 62.12C31.6274 61.8213 31.5634 61.4747 31.5634 61.08C31.5634 60.6 31.6594 60.2053 31.8514 59.896C32.0434 59.576 32.2834 59.3093 32.5714 59.096C32.8701 58.872 33.1741 58.6693 33.4834 58.488C33.7501 58.328 33.9954 58.1733 34.2194 58.024C34.4434 57.8747 34.6248 57.7093 34.7634 57.528C34.9128 57.336 34.9874 57.112 34.9874 56.856L35.5634 56.968C35.5634 57.3627 35.4781 57.6933 35.3074 57.96C35.1474 58.216 34.9341 58.44 34.6674 58.632C34.4114 58.8133 34.1394 58.9893 33.8514 59.16C33.6274 59.3093 33.4141 59.4693 33.2114 59.64C33.0194 59.8107 32.8594 60.008 32.7314 60.232C32.6141 60.4453 32.5554 60.712 32.5554 61.032C32.5554 61.2667 32.5768 61.4693 32.6194 61.64C32.6621 61.8107 32.7421 61.944 32.8594 62.04C32.9768 62.1253 33.1368 62.168 33.3394 62.168C33.5954 62.168 33.8194 62.104 34.0114 61.976C34.2141 61.848 34.3848 61.6667 34.5234 61.432C34.6728 61.1867 34.7848 60.8987 34.8594 60.568C34.9341 60.2267 34.9714 59.8533 34.9714 59.448L35.4834 58.44C35.4834 59.0587 35.4621 59.6187 35.4194 60.12C35.3768 60.6213 35.3021 61.0587 35.1954 61.432C35.0888 61.7947 34.9501 62.0987 34.7794 62.344C34.6088 62.5893 34.3901 62.776 34.1234 62.904C33.8674 63.0213 33.5634 63.08 33.2114 63.08ZM39.7833 63L38.5033 62.984C38.5033 62.984 38.5086 62.8773 38.5193 62.664C38.5406 62.44 38.5566 62.1307 38.5673 61.736C38.5886 61.3413 38.6046 60.888 38.6153 60.376C38.6366 59.864 38.6473 59.3147 38.6473 58.728C38.6473 57.9493 38.6313 57.256 38.5993 56.648C38.578 56.04 38.5566 55.5653 38.5353 55.224C38.514 54.872 38.5033 54.696 38.5033 54.696L39.7193 54.68C39.7193 54.68 39.714 54.8613 39.7033 55.224C39.6926 55.576 39.6766 56.0613 39.6553 56.68C39.6446 57.288 39.6393 57.976 39.6393 58.744C39.6393 59.32 39.6446 59.864 39.6553 60.376C39.6766 60.888 39.6926 61.3413 39.7033 61.736C39.7246 62.1307 39.7406 62.44 39.7513 62.664C39.7726 62.888 39.7833 63 39.7833 63ZM39.6873 53.432L38.5353 53.496L38.5033 52.136L39.7513 52.072L39.6873 53.432ZM47.1821 63.192L45.9661 63.368C45.9767 63.1867 45.9874 62.9467 45.9981 62.648C46.0194 62.3387 46.0354 61.9867 46.0461 61.592C46.0674 61.1973 46.0834 60.7707 46.0941 60.312C46.1047 59.8427 46.1101 59.3573 46.1101 58.856C46.1101 58.7173 46.1101 58.5413 46.1101 58.328C46.1101 58.1147 46.1101 57.8853 46.1101 57.64C46.1101 57.3947 46.1101 57.1547 46.1101 56.92C46.1101 56.5147 46.0727 56.2053 45.9981 55.992C45.9234 55.768 45.8167 55.6133 45.6781 55.528C45.5501 55.4427 45.3954 55.4 45.2141 55.4C44.9687 55.4 44.7181 55.5013 44.4621 55.704C44.2167 55.896 44.0087 56.2427 43.8381 56.744C43.6781 57.2347 43.5981 57.928 43.5981 58.824L42.9901 59.576C42.9901 59.1493 43.0061 58.7013 43.0381 58.232C43.0701 57.7627 43.1341 57.304 43.2301 56.856C43.3261 56.408 43.4647 56.008 43.6461 55.656C43.8274 55.2933 44.0621 55.0053 44.3501 54.792C44.6487 54.5787 45.0114 54.472 45.4381 54.472C45.7687 54.472 46.0567 54.5467 46.3021 54.696C46.5474 54.8453 46.7394 55.096 46.8781 55.448C47.0274 55.7893 47.1021 56.2533 47.1021 56.84C47.1021 57.1387 47.1021 57.384 47.1021 57.576C47.1021 57.7573 47.1021 57.9067 47.1021 58.024C47.1021 58.1413 47.1021 58.2533 47.1021 58.36C47.1021 58.4667 47.1021 58.5947 47.1021 58.744C47.1021 59.3307 47.1021 59.8533 47.1021 60.312C47.1127 60.7707 47.1234 61.1813 47.1341 61.544C47.1447 61.896 47.1501 62.2107 47.1501 62.488C47.1607 62.7547 47.1714 62.9893 47.1821 63.192ZM42.4621 62.984C42.4727 62.7493 42.4834 62.5147 42.4941 62.28C42.5047 62.0453 42.5154 61.7893 42.5261 61.512C42.5474 61.224 42.5634 60.8827 42.5741 60.488C42.5847 60.0827 42.5954 59.592 42.6061 59.016C42.6167 58.2373 42.6167 57.528 42.6061 56.888C42.5954 56.248 42.5794 55.736 42.5581 55.352C42.5474 54.968 42.5421 54.776 42.5421 54.776L43.4701 54.76C43.4807 54.9307 43.4914 55.16 43.5021 55.448C43.5127 55.736 43.5234 56.0613 43.5341 56.424C43.5447 56.776 43.5554 57.16 43.5661 57.576C43.5767 57.9813 43.5874 58.3973 43.5981 58.824C43.6087 59.6453 43.6194 60.3067 43.6301 60.808C43.6407 61.3093 43.6461 61.72 43.6461 62.04C43.6567 62.36 43.6621 62.6747 43.6621 62.984H42.4621ZM56.3618 63.16C55.8605 63.16 55.4338 63.0907 55.0818 62.952C54.7405 62.8027 54.4631 62.6053 54.2498 62.36C54.0471 62.1147 53.8978 61.832 53.8018 61.512C53.7058 61.192 53.6578 60.856 53.6578 60.504C53.6578 60.344 53.6631 60.184 53.6738 60.024C53.6951 59.864 53.7218 59.6987 53.7538 59.528H54.8418C54.8205 59.6987 54.7991 59.8693 54.7778 60.04C54.7671 60.2107 54.7618 60.3707 54.7618 60.52C54.7618 60.8293 54.7991 61.112 54.8738 61.368C54.9591 61.6133 55.1138 61.8107 55.3378 61.96C55.5618 62.1093 55.8818 62.184 56.2978 62.184C56.7245 62.184 57.0605 62.1147 57.3058 61.976C57.5511 61.8373 57.7271 61.656 57.8338 61.432C57.9511 61.208 58.0098 60.9627 58.0098 60.696C58.0098 60.4187 57.9458 60.1787 57.8178 59.976C57.7005 59.7733 57.5405 59.5867 57.3378 59.416C57.1351 59.2453 56.9058 59.08 56.6498 58.92C56.3938 58.76 56.1325 58.5947 55.8658 58.424C55.5885 58.2427 55.3165 58.0453 55.0498 57.832C54.7938 57.6187 54.5591 57.3733 54.3458 57.096C54.1325 56.808 53.9618 56.4773 53.8338 56.104C53.7058 55.72 53.6418 55.2827 53.6418 54.792C53.6418 54.1947 53.7538 53.6667 53.9778 53.208C54.2125 52.7493 54.5431 52.392 54.9698 52.136C55.3965 51.8693 55.9031 51.736 56.4898 51.736C57.2365 51.736 57.8018 51.8907 58.1858 52.2C58.5805 52.4987 58.8471 52.888 58.9858 53.368C59.1351 53.848 59.2098 54.3547 59.2098 54.888C59.2098 55.1013 59.1991 55.3147 59.1778 55.528C59.1671 55.7307 59.1511 55.9333 59.1298 56.136C59.1085 56.328 59.0871 56.5147 59.0658 56.696H57.8978C57.9405 56.4187 57.9778 56.1253 58.0098 55.816C58.0418 55.5067 58.0578 55.1973 58.0578 54.888C58.0578 54.504 58.0151 54.152 57.9298 53.832C57.8445 53.5013 57.6845 53.24 57.4498 53.048C57.2258 52.8453 56.8951 52.744 56.4578 52.744C56.1485 52.744 55.8871 52.8027 55.6738 52.92C55.4605 53.0267 55.2898 53.1813 55.1618 53.384C55.0338 53.576 54.9378 53.8 54.8738 54.056C54.8205 54.3013 54.7938 54.5627 54.7938 54.84C54.7938 55.2987 54.8738 55.6933 55.0338 56.024C55.1938 56.344 55.4071 56.6267 55.6738 56.872C55.9405 57.1067 56.2285 57.3253 56.5378 57.528C56.8471 57.72 57.1565 57.912 57.4658 58.104C57.7751 58.296 58.0578 58.504 58.3138 58.728C58.5805 58.952 58.7885 59.2133 58.9378 59.512C59.0978 59.8107 59.1778 60.168 59.1778 60.584C59.1778 61.096 59.0605 61.5493 58.8258 61.944C58.6018 62.328 58.2818 62.6267 57.8658 62.84C57.4498 63.0533 56.9485 63.16 56.3618 63.16ZM63.6289 63.16C63.0209 63.16 62.5516 63 62.2209 62.68C61.8903 62.3493 61.6503 61.9227 61.5009 61.4C61.4263 61.144 61.3676 60.872 61.3249 60.584C61.2929 60.2853 61.2663 59.976 61.2449 59.656C61.2343 59.336 61.2289 59.0053 61.2289 58.664C61.2289 58.2053 61.2503 57.7733 61.2929 57.368C61.3356 56.952 61.4103 56.5733 61.5169 56.232C61.6876 55.72 61.9543 55.3093 62.3169 55C62.6796 54.6907 63.1863 54.536 63.8369 54.536C64.3703 54.536 64.7969 54.7013 65.1169 55.032C65.4369 55.3627 65.6823 55.7787 65.8529 56.28C65.9703 56.6427 66.0556 57.0373 66.1089 57.464C66.1623 57.8907 66.1889 58.328 66.1889 58.776C66.1889 59.1173 66.1836 59.448 66.1729 59.768C66.1623 60.0773 66.1356 60.3707 66.0929 60.648C66.0609 60.9253 66.0076 61.1867 65.9329 61.432C65.7943 61.9653 65.5436 62.3867 65.1809 62.696C64.8289 63.0053 64.3116 63.16 63.6289 63.16ZM63.7409 62.28C64.0076 62.28 64.2209 62.2213 64.3809 62.104C64.5516 61.9867 64.6849 61.8267 64.7809 61.624C64.8876 61.4107 64.9676 61.176 65.0209 60.92C65.0636 60.728 65.0903 60.5307 65.1009 60.328C65.1223 60.1253 65.1329 59.9173 65.1329 59.704C65.1436 59.4907 65.1489 59.2827 65.1489 59.08C65.1489 58.664 65.1383 58.264 65.1169 57.88C65.1063 57.4853 65.0583 57.1333 64.9729 56.824C64.8876 56.4507 64.7489 56.1467 64.5569 55.912C64.3649 55.6773 64.0929 55.56 63.7409 55.56C63.3569 55.56 63.0636 55.6827 62.8609 55.928C62.6583 56.1733 62.5143 56.4827 62.4289 56.856C62.3543 57.1653 62.3063 57.5067 62.2849 57.88C62.2743 58.2427 62.2689 58.6053 62.2689 58.968C62.2689 59.1813 62.2743 59.4053 62.2849 59.64C62.2956 59.8747 62.3116 60.0987 62.3329 60.312C62.3543 60.5147 62.3916 60.7173 62.4449 60.92C62.5303 61.304 62.6743 61.6293 62.8769 61.896C63.0796 62.152 63.3676 62.28 63.7409 62.28ZM70.6974 63.208C70.1428 63.208 69.7001 63.048 69.3694 62.728C69.0494 62.408 68.8094 61.9867 68.6494 61.464C68.5428 61.1013 68.4681 60.7067 68.4254 60.28C68.3828 59.8533 68.3614 59.4107 68.3614 58.952C68.3614 58.44 68.3934 57.9547 68.4574 57.496C68.5214 57.0267 68.6174 56.6107 68.7454 56.248C68.8734 55.9067 69.0334 55.6133 69.2254 55.368C69.4281 55.1227 69.6788 54.9307 69.9774 54.792C70.2761 54.6533 70.6174 54.584 71.0014 54.584C71.5241 54.584 71.9241 54.696 72.2014 54.92C72.4894 55.144 72.6868 55.448 72.7934 55.832C72.9108 56.2053 72.9694 56.6427 72.9694 57.144C72.9694 57.3787 72.9588 57.624 72.9374 57.88C72.9161 58.1253 72.8894 58.3867 72.8574 58.664L71.8494 58.488C71.8708 58.2213 71.8921 57.9653 71.9134 57.72C71.9348 57.4747 71.9454 57.2453 71.9454 57.032C71.9454 56.712 71.9134 56.4347 71.8494 56.2C71.7961 55.9653 71.6894 55.784 71.5294 55.656C71.3801 55.5173 71.1614 55.448 70.8734 55.448C70.5428 55.448 70.2761 55.5707 70.0734 55.816C69.8814 56.0507 69.7321 56.36 69.6254 56.744C69.5401 57.0747 69.4814 57.4373 69.4494 57.832C69.4281 58.216 69.4174 58.6 69.4174 58.984C69.4174 59.24 69.4174 59.4907 69.4174 59.736C69.4281 59.9707 69.4441 60.2 69.4654 60.424C69.4868 60.648 69.5188 60.856 69.5614 61.048C69.6468 61.4213 69.7854 61.7253 69.9774 61.96C70.1694 62.184 70.4468 62.296 70.8094 62.296C71.2788 62.296 71.5881 62.2107 71.7374 62.04C71.8974 61.8587 71.9774 61.6293 71.9774 61.352C71.9774 61.256 71.9721 61.1707 71.9614 61.096C71.9614 61.0107 71.9508 60.9253 71.9294 60.84L72.8734 60.632C72.8948 60.728 72.9054 60.824 72.9054 60.92C72.9161 61.016 72.9214 61.112 72.9214 61.208C72.9214 61.592 72.8468 61.9387 72.6974 62.248C72.5481 62.5467 72.3081 62.7813 71.9774 62.952C71.6574 63.1227 71.2308 63.208 70.6974 63.208ZM76.7033 63L75.4233 62.984C75.4233 62.984 75.4286 62.8773 75.4393 62.664C75.4606 62.44 75.4766 62.1307 75.4873 61.736C75.5086 61.3413 75.5246 60.888 75.5353 60.376C75.5566 59.864 75.5673 59.3147 75.5673 58.728C75.5673 57.9493 75.5513 57.256 75.5193 56.648C75.498 56.04 75.4766 55.5653 75.4553 55.224C75.434 54.872 75.4233 54.696 75.4233 54.696L76.6393 54.68C76.6393 54.68 76.634 54.8613 76.6233 55.224C76.6126 55.576 76.5966 56.0613 76.5753 56.68C76.5646 57.288 76.5593 57.976 76.5593 58.744C76.5593 59.32 76.5646 59.864 76.5753 60.376C76.5966 60.888 76.6126 61.3413 76.6233 61.736C76.6446 62.1307 76.6606 62.44 76.6713 62.664C76.6926 62.888 76.7033 63 76.7033 63ZM76.6073 53.432L75.4553 53.496L75.4233 52.136L76.6713 52.072L76.6073 53.432ZM82.8861 63.16C82.7794 63.0213 82.6941 62.8667 82.6301 62.696C82.5767 62.5253 82.5341 62.3333 82.5021 62.12C82.4701 61.896 82.4487 61.6507 82.4381 61.384C82.4274 61.1067 82.4221 60.808 82.4221 60.488C82.4221 60.168 82.4221 59.8213 82.4221 59.448C82.4221 59.224 82.4221 59.0053 82.4221 58.792C82.4221 58.5787 82.4221 58.3653 82.4221 58.152C82.4327 57.9387 82.4381 57.7253 82.4381 57.512C82.4381 57.288 82.4381 57.0693 82.4381 56.856C82.4381 56.4293 82.3794 56.1093 82.2621 55.896C82.1447 55.6827 81.9901 55.5387 81.7981 55.464C81.6167 55.3787 81.4194 55.336 81.2061 55.336C80.8114 55.336 80.5341 55.4747 80.3741 55.752C80.2141 56.0293 80.1341 56.3493 80.1341 56.712C80.1341 56.8187 80.1394 56.9307 80.1501 57.048C80.1714 57.1547 80.1927 57.2667 80.2141 57.384L79.3021 57.688C79.2594 57.528 79.2274 57.368 79.2061 57.208C79.1954 57.048 79.1901 56.8987 79.1901 56.76C79.1901 56.3333 79.2701 55.9547 79.4301 55.624C79.6007 55.2933 79.8461 55.032 80.1661 54.84C80.4861 54.648 80.8754 54.552 81.3341 54.552C81.7501 54.552 82.0914 54.616 82.3581 54.744C82.6247 54.872 82.8381 55.048 82.9981 55.272C83.1581 55.4853 83.2701 55.7413 83.3341 56.04C83.3981 56.328 83.4301 56.6373 83.4301 56.968C83.4301 57.4053 83.4301 57.8 83.4301 58.152C83.4301 58.504 83.4301 58.84 83.4301 59.16C83.4301 59.4693 83.4301 59.8 83.4301 60.152C83.4301 60.4933 83.4301 60.8773 83.4301 61.304C83.4301 61.6453 83.4621 61.928 83.5261 62.152C83.5901 62.376 83.6914 62.5947 83.8301 62.808L82.8861 63.16ZM80.6621 63.08C80.3101 63.08 80.0114 62.9947 79.7661 62.824C79.5207 62.6533 79.3341 62.4187 79.2061 62.12C79.0781 61.8213 79.0141 61.4747 79.0141 61.08C79.0141 60.6 79.1101 60.2053 79.3021 59.896C79.4941 59.576 79.7341 59.3093 80.0221 59.096C80.3207 58.872 80.6247 58.6693 80.9341 58.488C81.2007 58.328 81.4461 58.1733 81.6701 58.024C81.8941 57.8747 82.0754 57.7093 82.2141 57.528C82.3634 57.336 82.4381 57.112 82.4381 56.856L83.0141 56.968C83.0141 57.3627 82.9287 57.6933 82.7581 57.96C82.5981 58.216 82.3847 58.44 82.1181 58.632C81.8621 58.8133 81.5901 58.9893 81.3021 59.16C81.0781 59.3093 80.8647 59.4693 80.6621 59.64C80.4701 59.8107 80.3101 60.008 80.1821 60.232C80.0647 60.4453 80.0061 60.712 80.0061 61.032C80.0061 61.2667 80.0274 61.4693 80.0701 61.64C80.1127 61.8107 80.1927 61.944 80.3101 62.04C80.4274 62.1253 80.5874 62.168 80.7901 62.168C81.0461 62.168 81.2701 62.104 81.4621 61.976C81.6647 61.848 81.8354 61.6667 81.9741 61.432C82.1234 61.1867 82.2354 60.8987 82.3101 60.568C82.3847 60.2267 82.4221 59.8533 82.4221 59.448L82.9341 58.44C82.9341 59.0587 82.9127 59.6187 82.8701 60.12C82.8274 60.6213 82.7527 61.0587 82.6461 61.432C82.5394 61.7947 82.4007 62.0987 82.2301 62.344C82.0594 62.5893 81.8407 62.776 81.5741 62.904C81.3181 63.0213 81.0141 63.08 80.6621 63.08ZM85.8899 62.968C85.9006 62.7227 85.9059 62.392 85.9059 61.976C85.9166 61.56 85.9219 61.096 85.9219 60.584C85.9326 60.0613 85.9379 59.5173 85.9379 58.952C85.9379 58.3867 85.9379 57.832 85.9379 57.288C85.9379 56.872 85.9379 56.4187 85.9379 55.928C85.9379 55.4373 85.9326 54.9467 85.9219 54.456C85.9219 53.9547 85.9166 53.48 85.9059 53.032C85.9059 52.584 85.9059 52.1893 85.9059 51.848L87.0899 51.832C87.0793 52.1627 87.0633 52.552 87.0419 53C87.0206 53.4373 86.9993 53.9067 86.9779 54.408C86.9673 54.9093 86.9566 55.4053 86.9459 55.896C86.9353 56.3867 86.9299 56.8453 86.9299 57.272C86.9299 57.8373 86.9353 58.4667 86.9459 59.16C86.9673 59.8427 86.9886 60.5093 87.0099 61.16C87.0419 61.8107 87.0686 62.3707 87.0899 62.84L85.8899 62.968ZM96.2581 63.16C95.8101 63.16 95.4154 63.096 95.0741 62.968C94.7434 62.84 94.4607 62.6587 94.2261 62.424C94.0021 62.1893 93.8314 61.9067 93.7141 61.576C93.5967 61.2453 93.5381 60.872 93.5381 60.456C93.5381 60.264 93.5487 60.072 93.5701 59.88C93.6021 59.6773 93.6394 59.4693 93.6821 59.256H94.7701C94.7274 59.48 94.6954 59.6933 94.6741 59.896C94.6527 60.088 94.6421 60.2747 94.6421 60.456C94.6421 61.0107 94.7594 61.4373 94.9941 61.736C95.2394 62.0347 95.6394 62.184 96.1941 62.184C96.6207 62.184 96.9567 62.1093 97.2021 61.96C97.4474 61.8107 97.6234 61.6187 97.7301 61.384C97.8474 61.1493 97.9061 60.8987 97.9061 60.632C97.9061 60.3547 97.8421 60.0987 97.7141 59.864C97.5967 59.6293 97.4367 59.4107 97.2341 59.208C97.0314 59.0053 96.8021 58.8133 96.5461 58.632C96.2901 58.44 96.0287 58.2587 95.7621 58.088C95.4847 57.9067 95.2127 57.7147 94.9461 57.512C94.6901 57.3093 94.4554 57.0747 94.2421 56.808C94.0287 56.5307 93.8581 56.2107 93.7301 55.848C93.6021 55.4747 93.5381 55.0373 93.5381 54.536C93.5381 53.9813 93.6554 53.496 93.8901 53.08C94.1354 52.664 94.4714 52.3387 94.8981 52.104C95.3354 51.8587 95.8314 51.736 96.3861 51.736C97.0687 51.736 97.6074 51.864 98.0021 52.12C98.3967 52.376 98.6794 52.7333 98.8501 53.192C99.0207 53.6507 99.1061 54.1893 99.1061 54.808C99.1061 54.936 99.1007 55.0693 99.0901 55.208C99.0901 55.336 99.0847 55.4747 99.0741 55.624C99.0634 55.7627 99.0474 55.9067 99.0261 56.056C99.0047 56.1947 98.9834 56.3387 98.9621 56.488H97.7941C97.8261 56.2853 97.8527 56.0933 97.8741 55.912C97.8954 55.72 97.9114 55.5333 97.9221 55.352C97.9434 55.1707 97.9541 55 97.9541 54.84C97.9541 54.424 97.9061 54.0613 97.8101 53.752C97.7141 53.432 97.5487 53.1867 97.3141 53.016C97.0794 52.8347 96.7594 52.744 96.3541 52.744C96.0661 52.744 95.8154 52.792 95.6021 52.888C95.3887 52.984 95.2127 53.1173 95.0741 53.288C94.9461 53.4587 94.8501 53.656 94.7861 53.88C94.7221 54.104 94.6901 54.3387 94.6901 54.584C94.6901 55.0427 94.7701 55.4267 94.9301 55.736C95.0901 56.0347 95.3034 56.296 95.5701 56.52C95.8367 56.744 96.1247 56.9573 96.4341 57.16C96.7434 57.352 97.0527 57.56 97.3621 57.784C97.6714 58.008 97.9541 58.2533 98.2101 58.52C98.4767 58.776 98.6847 59.0693 98.8341 59.4C98.9941 59.7307 99.0741 60.104 99.0741 60.52C99.0741 61.032 98.9567 61.4907 98.7221 61.896C98.4981 62.2907 98.1781 62.6 97.7621 62.824C97.3461 63.048 96.8447 63.16 96.2581 63.16ZM103.461 63.208C102.907 63.208 102.469 63.0427 102.149 62.712C101.829 62.3813 101.589 61.96 101.429 61.448C101.323 61.0747 101.243 60.6747 101.189 60.248C101.147 59.8107 101.125 59.3787 101.125 58.952C101.125 58.4187 101.152 57.9173 101.205 57.448C101.269 56.9787 101.371 56.552 101.509 56.168C101.637 55.848 101.797 55.5707 101.989 55.336C102.181 55.1013 102.421 54.92 102.709 54.792C103.008 54.6533 103.36 54.584 103.765 54.584C104.245 54.584 104.629 54.7067 104.917 54.952C105.205 55.1867 105.413 55.5013 105.541 55.896C105.669 56.2907 105.733 56.728 105.733 57.208C105.733 57.4 105.723 57.6027 105.701 57.816C105.68 58.0187 105.653 58.2213 105.621 58.424L104.613 58.408C104.635 58.1627 104.656 57.9227 104.677 57.688C104.699 57.4427 104.709 57.2187 104.709 57.016C104.709 56.7173 104.677 56.4507 104.613 56.216C104.56 55.9813 104.453 55.7947 104.293 55.656C104.144 55.5173 103.925 55.448 103.637 55.448C103.285 55.448 103.008 55.5653 102.805 55.8C102.613 56.0347 102.475 56.3387 102.389 56.712C102.304 57.0427 102.245 57.4053 102.213 57.8C102.192 58.1947 102.181 58.5893 102.181 58.984C102.181 59.208 102.187 59.432 102.197 59.656C102.208 59.88 102.224 60.0987 102.245 60.312C102.267 60.5253 102.293 60.728 102.325 60.92C102.411 61.3147 102.549 61.6453 102.741 61.912C102.933 62.168 103.211 62.296 103.573 62.296C103.872 62.296 104.107 62.232 104.277 62.104C104.459 61.976 104.587 61.8053 104.661 61.592C104.747 61.3787 104.789 61.144 104.789 60.888C104.789 60.8027 104.784 60.7173 104.773 60.632C104.773 60.536 104.763 60.44 104.741 60.344L105.733 60.312C105.744 60.3973 105.749 60.4827 105.749 60.568C105.76 60.6427 105.765 60.7227 105.765 60.808C105.765 61.2667 105.685 61.6773 105.525 62.04C105.365 62.4027 105.115 62.6907 104.773 62.904C104.443 63.1067 104.005 63.208 103.461 63.208ZM110.267 63.16C109.68 63.16 109.216 62.9947 108.875 62.664C108.544 62.3227 108.304 61.8853 108.155 61.352C108.048 60.968 107.974 60.5467 107.931 60.088C107.888 59.6293 107.867 59.1547 107.867 58.664C107.867 58.344 107.878 58.0347 107.899 57.736C107.931 57.4373 107.974 57.1493 108.027 56.872C108.091 56.5947 108.166 56.3387 108.251 56.104C108.432 55.6347 108.704 55.256 109.067 54.968C109.43 54.68 109.899 54.536 110.475 54.536C111.051 54.536 111.504 54.712 111.835 55.064C112.166 55.416 112.406 55.864 112.555 56.408C112.651 56.7493 112.72 57.1227 112.763 57.528C112.806 57.9333 112.827 58.3493 112.827 58.776C112.827 59.2347 112.811 59.6773 112.779 60.104C112.747 60.52 112.683 60.904 112.587 61.256C112.491 61.6507 112.347 61.992 112.155 62.28C111.963 62.5573 111.712 62.776 111.403 62.936C111.104 63.0853 110.726 63.16 110.267 63.16ZM110.379 62.216C110.774 62.216 111.067 62.0933 111.259 61.848C111.451 61.592 111.584 61.2667 111.659 60.872C111.702 60.6907 111.728 60.504 111.739 60.312C111.76 60.1093 111.771 59.9067 111.771 59.704C111.782 59.4907 111.787 59.2827 111.787 59.08C111.787 58.6853 111.776 58.296 111.755 57.912C111.734 57.528 111.686 57.176 111.611 56.856C111.526 56.4507 111.382 56.12 111.179 55.864C110.987 55.5973 110.72 55.464 110.379 55.464C110.176 55.464 110 55.512 109.851 55.608C109.702 55.704 109.574 55.832 109.467 55.992C109.36 56.1413 109.27 56.3227 109.195 56.536C109.12 56.76 109.062 57.0107 109.019 57.288C108.976 57.5547 108.944 57.832 108.923 58.12C108.912 58.408 108.907 58.6907 108.907 58.968C108.907 59.1707 108.912 59.3787 108.923 59.592C108.934 59.8053 108.95 60.0187 108.971 60.232C108.992 60.4347 109.019 60.6267 109.051 60.808C109.136 61.2133 109.28 61.5493 109.483 61.816C109.686 62.0827 109.984 62.216 110.379 62.216ZM118.344 58.456C118.408 58.0827 118.466 57.7307 118.52 57.4C118.573 57.0587 118.6 56.7547 118.6 56.488C118.6 56.136 118.541 55.8587 118.424 55.656C118.317 55.4427 118.12 55.336 117.832 55.336C117.64 55.336 117.432 55.4213 117.208 55.592C116.984 55.752 116.786 56.0507 116.616 56.488C116.456 56.9253 116.376 57.5547 116.376 58.376L115.752 59.048C115.762 58.7813 115.784 58.4507 115.816 58.056C115.848 57.6613 115.906 57.2507 115.992 56.824C116.077 56.3973 116.2 56.0027 116.36 55.64C116.52 55.2667 116.733 54.968 117 54.744C117.277 54.5093 117.618 54.392 118.024 54.392C118.408 54.392 118.712 54.4933 118.936 54.696C119.16 54.8987 119.32 55.1707 119.416 55.512C119.512 55.8427 119.56 56.216 119.56 56.632C119.56 56.984 119.533 57.3467 119.48 57.72C119.426 58.0827 119.357 58.4347 119.272 58.776L118.344 58.456ZM115.32 63.08C115.33 62.8667 115.336 62.6533 115.336 62.44C115.346 62.2267 115.352 62.008 115.352 61.784C115.362 61.56 115.368 61.3147 115.368 61.048C115.378 60.7707 115.384 60.4667 115.384 60.136C115.384 59.8053 115.384 59.432 115.384 59.016C115.384 58.3547 115.378 57.7573 115.368 57.224C115.357 56.6907 115.341 56.216 115.32 55.8C115.309 55.3733 115.288 55.0053 115.256 54.696L116.2 54.792C116.221 55.0267 116.237 55.3147 116.248 55.656C116.269 55.9973 116.29 56.392 116.312 56.84C116.333 57.288 116.354 57.8 116.376 58.376C116.376 58.8773 116.376 59.352 116.376 59.8C116.386 60.248 116.402 60.664 116.424 61.048C116.445 61.432 116.461 61.784 116.472 62.104C116.493 62.4133 116.509 62.68 116.52 62.904L115.32 63.08ZM123.564 63.192C122.966 63.192 122.497 63.0533 122.156 62.776C121.825 62.488 121.585 62.0933 121.436 61.592C121.318 61.208 121.238 60.7707 121.196 60.28C121.164 59.7787 121.148 59.2453 121.148 58.68C121.148 58.2427 121.169 57.8267 121.212 57.432C121.254 57.0267 121.329 56.664 121.436 56.344C121.542 55.9813 121.692 55.672 121.884 55.416C122.086 55.1493 122.337 54.9413 122.636 54.792C122.945 54.6427 123.313 54.568 123.74 54.568C124.262 54.568 124.673 54.68 124.972 54.904C125.27 55.1173 125.484 55.4213 125.612 55.816C125.74 56.2 125.804 56.6587 125.804 57.192C125.804 57.4267 125.793 57.672 125.772 57.928C125.75 58.184 125.718 58.4453 125.676 58.712C125.644 58.9787 125.601 59.2613 125.548 59.56L124.62 58.744C124.652 58.5093 124.684 58.2907 124.716 58.088C124.748 57.8853 124.769 57.688 124.78 57.496C124.801 57.304 124.812 57.1227 124.812 56.952C124.812 56.4827 124.726 56.1147 124.556 55.848C124.396 55.5813 124.092 55.448 123.644 55.448C123.292 55.448 123.014 55.576 122.812 55.832C122.62 56.088 122.476 56.408 122.38 56.792C122.337 56.984 122.3 57.1867 122.268 57.4C122.246 57.6133 122.23 57.832 122.22 58.056C122.209 58.2693 122.204 58.4827 122.204 58.696C122.204 59.0053 122.204 59.304 122.204 59.592C122.214 59.8693 122.225 60.136 122.236 60.392C122.257 60.6373 122.289 60.8667 122.332 61.08C122.417 61.4533 122.556 61.752 122.748 61.976C122.95 62.1893 123.244 62.296 123.628 62.296C124.054 62.296 124.353 62.2053 124.524 62.024C124.705 61.8427 124.796 61.592 124.796 61.272C124.796 61.1867 124.79 61.096 124.78 61C124.769 60.904 124.753 60.8027 124.732 60.696L125.676 60.808C125.697 60.8827 125.708 60.9627 125.708 61.048C125.718 61.1333 125.724 61.224 125.724 61.32C125.724 61.64 125.649 61.944 125.5 62.232C125.361 62.52 125.132 62.7547 124.812 62.936C124.502 63.1067 124.086 63.192 123.564 63.192ZM121.58 59.672L121.564 58.728L125.548 58.696V59.56C125.548 59.56 125.462 59.56 125.292 59.56C125.132 59.56 124.913 59.5653 124.636 59.576C124.369 59.5867 124.06 59.5973 123.708 59.608C123.366 59.608 123.009 59.6133 122.636 59.624C122.273 59.6347 121.921 59.6507 121.58 59.672Z" fill="white"/>
<g clip-path="url(#clip0_4_662)">
<path d="M8.96734 7.09966H1.33044C0.595764 7.09966 0 6.50545 0 5.77271V1.32695C0 0.594204 0.595764 0 1.33044 0H27.5688C28.3034 0 28.8992 0.594204 28.8992 1.32695V5.77271C28.8992 6.50545 28.3034 7.09966 27.5688 7.09966H19.9319C19.1972 7.09966 18.6014 7.69386 18.6014 8.42661V32.5119C18.6014 33.2446 18.0057 33.8388 17.271 33.8388H11.6251C10.8905 33.8388 10.2947 33.2446 10.2947 32.5119V8.42661C10.2947 7.69386 9.69892 7.09966 8.96425 7.09966H8.96734Z" fill="white"/>
<path d="M31.7885 9.46414H37.7709C38.2956 9.46414 38.7185 9.88594 38.7185 10.4093V13.5805C38.7185 14.384 38.6228 15.0952 38.6228 15.0952H38.7185C39.7619 11.7825 42.8457 9.03619 46.5005 9.03619C46.5067 9.03619 46.5098 9.03619 46.5159 9.03619C47.0345 9.03619 47.4513 9.46414 47.4513 9.98138V16.1112C47.4513 16.6562 46.9913 17.0903 46.448 17.0533C46.2505 17.041 46.0313 17.0318 45.7905 17.0318C43.8458 17.0318 40.6663 17.6475 39.481 21.2897C39.197 22.1887 39.055 23.2786 39.055 24.6025V32.8875C39.055 33.4109 38.6321 33.8327 38.1073 33.8327H31.7947C31.2699 33.8327 30.847 33.4109 30.847 32.8875V10.4093C30.847 9.88594 31.2699 9.46414 31.7947 9.46414H31.7885Z" fill="white"/>
<path d="M62.2065 8.89767C69.4205 8.89767 73.4982 13.913 73.4982 20.6832C73.4982 21.0712 73.455 21.6777 73.4087 22.2041C73.3562 22.7891 72.8654 23.2386 72.2758 23.2386H59.5085C58.635 23.2386 58.0855 24.1807 58.5208 24.935C59.5672 26.7453 61.5304 27.592 63.5801 27.592C65.8984 27.592 68.0962 26.5175 69.3186 25.7878C69.8773 25.4553 70.5996 25.6585 70.9022 26.2312L72.9055 30.0088C73.1741 30.5138 73.0228 31.1388 72.5536 31.4651C71.0935 32.4811 67.698 34.4023 62.9134 34.4023C54.1837 34.4023 49.4855 28.1092 49.4855 21.6253C49.4855 14.4795 54.3257 8.89459 62.2034 8.89459L62.2065 8.89767ZM64.75 18.5527C65.0248 18.5527 65.247 18.3126 65.21 18.0416C64.997 16.413 63.7808 15.0521 62.0151 15.0521C59.916 15.0521 58.7831 16.3853 58.2522 17.94C58.1503 18.2418 58.3695 18.5558 58.6905 18.5558H64.747L64.75 18.5527Z" fill="white"/>
<path d="M126.191 21.2035C126.395 21.2035 126.598 21.2035 126.802 21.2035C126.827 21.2128 126.852 21.2251 126.879 21.2312C127.796 21.4098 128.46 21.9086 128.818 22.7799C128.904 22.9923 128.941 23.2263 129.003 23.451V23.9498C128.997 23.9713 128.985 23.9898 128.981 24.0114C128.833 24.9565 128.33 25.6339 127.438 26.0033C127.219 26.0926 126.978 26.1326 126.75 26.1942H126.25C126.228 26.1881 126.209 26.1757 126.188 26.1727C125.219 26.0218 124.543 25.4984 124.169 24.5933C124.092 24.4054 124.055 24.1992 123.996 24.0021C123.996 23.7989 123.996 23.5957 123.996 23.3925C124.015 23.334 124.033 23.2786 124.049 23.2201C124.237 22.3488 124.737 21.7331 125.561 21.3913C125.765 21.3082 125.984 21.262 126.194 21.2004L126.191 21.2035ZM126.493 21.7084C125.398 21.7084 124.496 22.6105 124.499 23.7035C124.499 24.7964 125.404 25.6955 126.5 25.6924C127.595 25.6924 128.494 24.7903 128.494 23.6973C128.494 22.6044 127.589 21.7054 126.493 21.7084Z" fill="white"/>
<path d="M126.08 23.9714V24.9412H125.413V22.3581C125.413 22.3581 125.422 22.3458 125.432 22.3458C125.885 22.3519 126.339 22.3396 126.79 22.3735C127.308 22.4135 127.574 22.8876 127.373 23.3618C127.296 23.5434 127.145 23.645 126.95 23.7281C127.197 23.8359 127.308 24.0329 127.41 24.2423C127.524 24.4732 127.636 24.701 127.759 24.9504C127.524 24.9504 127.311 24.9535 127.102 24.9473C127.068 24.9473 127.024 24.9042 127.006 24.8704C126.91 24.6856 126.821 24.4978 126.728 24.3131C126.571 23.996 126.453 23.9344 126.08 23.9714ZM126.083 23.5157C126.247 23.5003 126.392 23.5003 126.537 23.4726C126.688 23.4449 126.753 23.3371 126.75 23.1493C126.75 22.9738 126.679 22.8661 126.527 22.8445C126.382 22.823 126.234 22.8291 126.083 22.8199V23.5126V23.5157Z" fill="white"/>
<path d="M100.255 33.0599C100.663 33.6695 100.224 34.4854 99.4865 34.4854H92.5287C92.2077 34.4854 91.9083 34.316 91.7416 34.042L89.0066 29.5285C88.6485 28.9405 87.7935 28.9374 87.4323 29.5255L84.6603 34.0451C84.4936 34.3191 84.1942 34.4854 83.8732 34.4854H77.0975C76.3628 34.4854 75.9245 33.6664 76.3319 33.0568L83.2403 22.7214C83.4472 22.4135 83.4472 22.0102 83.2403 21.7023L76.4709 11.5916C76.0634 10.982 76.5017 10.163 77.2364 10.163H84.2343C84.5584 10.163 84.8579 10.3324 85.0246 10.6094L100.258 33.0568L100.255 33.0599ZM91.2261 10.1661H99.3044C100.039 10.1661 100.477 10.9851 100.07 11.5947L95.7607 18.0447C95.5075 18.4265 94.9457 18.4265 94.6895 18.0447L90.3587 11.6347C89.6332 10.3262 91.2261 10.1661 91.2261 10.1661Z" fill="white"/>
<path d="M121.965 44.5714C122.373 45.181 121.934 45.9969 121.196 45.9969H114.239C113.918 45.9969 113.618 45.8276 113.451 45.5536L110.717 41.0401C110.358 40.452 109.503 40.4489 109.142 41.037L106.37 45.5566C106.204 45.8306 105.904 45.9969 105.583 45.9969H98.8074C98.0727 45.9969 97.6344 45.1779 98.0419 44.5683L104.95 34.2329C105.157 33.925 105.157 33.5217 104.95 33.2138L98.1808 23.1031C97.7733 22.4935 98.2116 21.6746 98.9463 21.6746H105.944C106.268 21.6746 106.568 21.8439 106.734 22.121L121.968 44.5683L121.965 44.5714ZM112.936 21.6776H121.014C121.749 21.6776 122.187 22.4966 121.78 23.1062L117.471 29.5562C117.217 29.938 116.656 29.938 116.399 29.5562L112.069 23.1462C111.343 21.8377 112.936 21.6776 112.936 21.6776Z" fill="white"/>
<path d="M113.976 18.3279H105.898C105.163 18.3279 104.725 17.509 105.132 16.8994L109.442 10.4494C109.695 10.0676 110.257 10.0676 110.513 10.4494L114.844 16.8594C115.569 18.1678 113.976 18.3279 113.976 18.3279Z" fill="white"/>
</g>
<defs>
<clipPath id="clip0_4_662">
<rect width="129" height="46" fill="white"/>
</clipPath>
</defs>
</svg>
